<svg xmlns="http://www.w3.org/2000/svg" width="600" height="150" viewBox="0 0 600 150"><style>text{font-family:ui-monospace,SFMono-Regular,Menlo,Consolas,'Liberation Mono',monospace}.ink{fill:#24292f}.mid{fill:#57606a}.dim{fill:#8c959f}.line{stroke:#d0d7de}.accent{fill:#0969da}@media(prefers-color-scheme:dark){.ink{fill:#e6edf3}.mid{fill:#c9d1d9}.dim{fill:#8b949e}.line{stroke:#30363d}.accent{fill:#58a6ff}}</style><g opacity="0"><animate attributeName="opacity" from="0" to="1" begin="0.05s" dur="0.50s" fill="freeze"/><text x="20" y="26" font-size="10" class="dim" text-anchor="start" font-weight="normal">CONTRIBUTIONS, LAST 12 MONTHS</text></g><g opacity="0"><animate attributeName="opacity" from="0" to="1" begin="0.15s" dur="0.50s" fill="freeze"/><text x="20" y="62" font-size="34" class="ink" text-anchor="start" font-weight="600">30</text><text x="72" y="62" font-size="12" class="mid" text-anchor="start" font-weight="normal">across 11 active days</text></g><g opacity="0"><animate attributeName="opacity" from="0" to="1" begin="0.30s" dur="0.50s" fill="freeze"/><rect x="20.0" y="132.5" width="8.6" height="1.5" rx="1" class="mid" opacity="0.15"/><rect x="30.6" y="132.5" width="8.6" height="1.5" rx="1" class="mid" opacity="0.15"/><rect x="41.1" y="132.5" width="8.6" height="1.5" rx="1" class="mid" opacity="0.15"/><rect x="51.7" y="132.5" width="8.6" height="1.5" rx="1" class="mid" opacity="0.15"/><rect x="62.3" y="132.5" width="8.6" height="1.5" rx="1" class="mid" opacity="0.15"/><rect x="72.8" y="132.5" width="8.6" height="1.5" rx="1" class="mid" opacity="0.15"/><rect x="83.4" y="132.5" width="8.6" height="1.5" rx="1" class="mid" opacity="0.15"/><rect x="94.0" y="132.5" width="8.6" height="1.5" rx="1" class="mid" opacity="0.15"/><rect x="104.5" y="132.5" width="8.6" height="1.5" rx="1" class="mid" opacity="0.15"/><rect x="115.1" y="132.5" width="8.6" height="1.5" rx="1" class="mid" opacity="0.15"/><rect x="125.7" y="132.5" width="8.6" height="1.5" rx="1" class="mid" opacity="0.15"/><rect x="136.2" y="132.5" width="8.6" height="1.5" rx="1" class="mid" opacity="0.15"/><rect x="146.8" y="132.5" width="8.6" height="1.5" rx="1" class="mid" opacity="0.15"/><rect x="157.4" y="132.5" width="8.6" height="1.5" rx="1" class="mid" opacity="0.15"/><rect x="167.9" y="132.5" width="8.6" height="1.5" rx="1" class="mid" opacity="0.15"/><rect x="178.5" y="132.5" width="8.6" height="1.5" rx="1" class="mid" opacity="0.15"/><rect x="189.1" y="132.5" width="8.6" height="1.5" rx="1" class="mid" opacity="0.15"/><rect x="199.6" y="132.5" width="8.6" height="1.5" rx="1" class="mid" opacity="0.15"/><rect x="210.2" y="132.5" width="8.6" height="1.5" rx="1" class="mid" opacity="0.15"/><rect x="220.8" y="132.5" width="8.6" height="1.5" rx="1" class="mid" opacity="0.15"/><rect x="231.3" y="132.5" width="8.6" height="1.5" rx="1" class="mid" opacity="0.15"/><rect x="241.9" y="132.5" width="8.6" height="1.5" rx="1" class="mid" opacity="0.15"/><rect x="252.5" y="132.5" width="8.6" height="1.5" rx="1" class="mid" opacity="0.15"/><rect x="263.0" y="132.5" width="8.6" height="1.5" rx="1" class="mid" opacity="0.15"/><rect x="273.6" y="132.5" width="8.6" height="1.5" rx="1" class="mid" opacity="0.15"/><rect x="284.2" y="132.5" width="8.6" height="1.5" rx="1" class="mid" opacity="0.15"/><rect x="294.7" y="132.5" width="8.6" height="1.5" rx="1" class="mid" opacity="0.15"/><rect x="305.3" y="132.5" width="8.6" height="1.5" rx="1" class="mid" opacity="0.15"/><rect x="315.8" y="132.5" width="8.6" height="1.5" rx="1" class="mid" opacity="0.15"/><rect x="326.4" y="132.5" width="8.6" height="1.5" rx="1" class="mid" opacity="0.15"/><rect x="337.0" y="132.5" width="8.6" height="1.5" rx="1" class="mid" opacity="0.15"/><rect x="347.5" y="132.5" width="8.6" height="1.5" rx="1" class="mid" opacity="0.15"/><rect x="358.1" y="132.5" width="8.6" height="1.5" rx="1" class="mid" opacity="0.15"/><rect x="368.7" y="132.5" width="8.6" height="1.5" rx="1" class="mid" opacity="0.15"/><rect x="379.2" y="132.5" width="8.6" height="1.5" rx="1" class="mid" opacity="0.15"/><rect x="389.8" y="132.5" width="8.6" height="1.5" rx="1" class="mid" opacity="0.15"/><rect x="400.4" y="132.5" width="8.6" height="1.5" rx="1" class="mid" opacity="0.15"/><rect x="410.9" y="132.5" width="8.6" height="1.5" rx="1" class="mid" opacity="0.15"/><rect x="421.5" y="127.9" width="8.6" height="6.1" rx="1" class="mid" opacity="1.0"/><rect x="432.1" y="115.6" width="8.6" height="18.4" rx="1" class="mid" opacity="1.0"/><rect x="442.6" y="132.5" width="8.6" height="1.5" rx="1" class="mid" opacity="0.15"/><rect x="453.2" y="132.5" width="8.6" height="1.5" rx="1" class="mid" opacity="0.15"/><rect x="463.8" y="132.5" width="8.6" height="1.5" rx="1" class="mid" opacity="0.15"/><rect x="474.3" y="132.5" width="8.6" height="1.5" rx="1" class="mid" opacity="0.15"/><rect x="484.9" y="132.5" width="8.6" height="1.5" rx="1" class="mid" opacity="0.15"/><rect x="495.5" y="132.5" width="8.6" height="1.5" rx="1" class="mid" opacity="0.15"/><rect x="506.0" y="132.5" width="8.6" height="1.5" rx="1" class="mid" opacity="0.15"/><rect x="516.6" y="132.5" width="8.6" height="1.5" rx="1" class="mid" opacity="0.15"/><rect x="527.2" y="127.9" width="8.6" height="6.1" rx="1" class="mid" opacity="1.0"/><rect x="537.7" y="127.9" width="8.6" height="6.1" rx="1" class="mid" opacity="1.0"/><rect x="548.3" y="88.0" width="8.6" height="46.0" rx="1" class="mid" opacity="1.0"/><rect x="558.9" y="127.9" width="8.6" height="6.1" rx="1" class="mid" opacity="1.0"/><rect x="569.4" y="130.9" width="8.6" height="3.1" rx="1" class="accent" opacity="1.0"/></g><g opacity="0"><animate attributeName="opacity" from="0" to="1" begin="0.55s" dur="0.50s" fill="freeze"/><text x="20" y="148" font-size="9" class="dim" text-anchor="start" font-weight="normal">52 weeks ago</text><text x="580" y="148" font-size="9" class="dim" text-anchor="end" font-weight="normal">this week</text></g></svg>